<mxfile host="app.diagrams.net" agent="Mozilla/5.0 (Windows NT 10.0; Win64; x64) AppleWebKit/537.36 (KHTML, like Gecko) Chrome/126.0.0.0 Safari/537.36 OPR/112.0.0.0" version="24.7.7">
  <diagram name="PÃ¡gina-1" id="e2j7Vbg9H-i34eto6L7w">
    <mxGraphModel dx="1525" dy="889" grid="1" gridSize="10" guides="1" tooltips="1" connect="1" arrows="1" fold="1" page="1" pageScale="1" pageWidth="827" pageHeight="1169" math="0" shadow="0">
      <root>
        <mxCell id="0" />
        <mxCell id="1" parent="0" />
        <mxCell id="aTtCg0qON2xrBZ-jWl8L-5" style="edgeStyle=orthogonalEdgeStyle;rounded=0;orthogonalLoop=1;jettySize=auto;html=1;exitX=0.5;exitY=1;exitDx=0;exitDy=0;strokeColor=#E07A5F;fontColor=#393C56;fillColor=#F2CC8F;" edge="1" parent="1" source="aTtCg0qON2xrBZ-jWl8L-1" target="aTtCg0qON2xrBZ-jWl8L-3">
          <mxGeometry relative="1" as="geometry" />
        </mxCell>
        <mxCell id="aTtCg0qON2xrBZ-jWl8L-6" style="edgeStyle=orthogonalEdgeStyle;rounded=0;orthogonalLoop=1;jettySize=auto;html=1;exitX=0.5;exitY=1;exitDx=0;exitDy=0;entryX=0.5;entryY=0;entryDx=0;entryDy=0;strokeColor=#E07A5F;fontColor=#393C56;fillColor=#F2CC8F;" edge="1" parent="1" source="aTtCg0qON2xrBZ-jWl8L-1" target="aTtCg0qON2xrBZ-jWl8L-4">
          <mxGeometry relative="1" as="geometry" />
        </mxCell>
        <mxCell id="aTtCg0qON2xrBZ-jWl8L-1" value="html" style="rounded=1;whiteSpace=wrap;html=1;strokeColor=#E07A5F;fontColor=#393C56;fillColor=#F2CC8F;" vertex="1" parent="1">
          <mxGeometry x="480" y="230" width="120" height="40" as="geometry" />
        </mxCell>
        <mxCell id="aTtCg0qON2xrBZ-jWl8L-10" style="edgeStyle=orthogonalEdgeStyle;rounded=0;orthogonalLoop=1;jettySize=auto;html=1;exitX=0.5;exitY=1;exitDx=0;exitDy=0;entryX=0.5;entryY=0;entryDx=0;entryDy=0;strokeColor=#E07A5F;fontColor=#393C56;fillColor=#F2CC8F;" edge="1" parent="1" source="aTtCg0qON2xrBZ-jWl8L-3" target="aTtCg0qON2xrBZ-jWl8L-7">
          <mxGeometry relative="1" as="geometry" />
        </mxCell>
        <mxCell id="aTtCg0qON2xrBZ-jWl8L-11" style="edgeStyle=orthogonalEdgeStyle;rounded=0;orthogonalLoop=1;jettySize=auto;html=1;exitX=0.5;exitY=1;exitDx=0;exitDy=0;entryX=0.5;entryY=0;entryDx=0;entryDy=0;strokeColor=#E07A5F;fontColor=#393C56;fillColor=#F2CC8F;" edge="1" parent="1" source="aTtCg0qON2xrBZ-jWl8L-3" target="aTtCg0qON2xrBZ-jWl8L-8">
          <mxGeometry relative="1" as="geometry" />
        </mxCell>
        <mxCell id="aTtCg0qON2xrBZ-jWl8L-12" style="edgeStyle=orthogonalEdgeStyle;rounded=0;orthogonalLoop=1;jettySize=auto;html=1;exitX=0.5;exitY=1;exitDx=0;exitDy=0;entryX=0.5;entryY=0;entryDx=0;entryDy=0;strokeColor=#E07A5F;fontColor=#393C56;fillColor=#F2CC8F;" edge="1" parent="1" source="aTtCg0qON2xrBZ-jWl8L-3" target="aTtCg0qON2xrBZ-jWl8L-9">
          <mxGeometry relative="1" as="geometry" />
        </mxCell>
        <mxCell id="aTtCg0qON2xrBZ-jWl8L-3" value="head" style="rounded=1;whiteSpace=wrap;html=1;strokeColor=#E07A5F;fontColor=#393C56;fillColor=#F2CC8F;" vertex="1" parent="1">
          <mxGeometry x="230" y="330" width="120" height="40" as="geometry" />
        </mxCell>
        <mxCell id="aTtCg0qON2xrBZ-jWl8L-16" style="edgeStyle=orthogonalEdgeStyle;rounded=0;orthogonalLoop=1;jettySize=auto;html=1;exitX=0.5;exitY=1;exitDx=0;exitDy=0;strokeColor=#E07A5F;fontColor=#393C56;fillColor=#F2CC8F;" edge="1" parent="1" source="aTtCg0qON2xrBZ-jWl8L-4" target="aTtCg0qON2xrBZ-jWl8L-13">
          <mxGeometry relative="1" as="geometry" />
        </mxCell>
        <mxCell id="aTtCg0qON2xrBZ-jWl8L-17" style="edgeStyle=orthogonalEdgeStyle;rounded=0;orthogonalLoop=1;jettySize=auto;html=1;exitX=0.5;exitY=1;exitDx=0;exitDy=0;entryX=0.5;entryY=0;entryDx=0;entryDy=0;strokeColor=#E07A5F;fontColor=#393C56;fillColor=#F2CC8F;" edge="1" parent="1" source="aTtCg0qON2xrBZ-jWl8L-4" target="aTtCg0qON2xrBZ-jWl8L-14">
          <mxGeometry relative="1" as="geometry" />
        </mxCell>
        <mxCell id="aTtCg0qON2xrBZ-jWl8L-18" style="edgeStyle=orthogonalEdgeStyle;rounded=0;orthogonalLoop=1;jettySize=auto;html=1;exitX=0.5;exitY=1;exitDx=0;exitDy=0;entryX=0.5;entryY=0;entryDx=0;entryDy=0;strokeColor=#E07A5F;fontColor=#393C56;fillColor=#F2CC8F;" edge="1" parent="1" source="aTtCg0qON2xrBZ-jWl8L-4" target="aTtCg0qON2xrBZ-jWl8L-15">
          <mxGeometry relative="1" as="geometry" />
        </mxCell>
        <mxCell id="aTtCg0qON2xrBZ-jWl8L-27" style="edgeStyle=orthogonalEdgeStyle;rounded=0;orthogonalLoop=1;jettySize=auto;html=1;exitX=0.5;exitY=1;exitDx=0;exitDy=0;entryX=0.5;entryY=0;entryDx=0;entryDy=0;strokeColor=#E07A5F;fontColor=#393C56;fillColor=#F2CC8F;" edge="1" parent="1" source="aTtCg0qON2xrBZ-jWl8L-4" target="aTtCg0qON2xrBZ-jWl8L-26">
          <mxGeometry relative="1" as="geometry" />
        </mxCell>
        <mxCell id="aTtCg0qON2xrBZ-jWl8L-4" value="body" style="rounded=1;whiteSpace=wrap;html=1;strokeColor=#E07A5F;fontColor=#393C56;fillColor=#F2CC8F;" vertex="1" parent="1">
          <mxGeometry x="910" y="330" width="120" height="40" as="geometry" />
        </mxCell>
        <mxCell id="aTtCg0qON2xrBZ-jWl8L-7" value="meta" style="rounded=1;whiteSpace=wrap;html=1;strokeColor=#E07A5F;fontColor=#393C56;fillColor=#F2CC8F;" vertex="1" parent="1">
          <mxGeometry x="90" y="410" width="120" height="40" as="geometry" />
        </mxCell>
        <mxCell id="aTtCg0qON2xrBZ-jWl8L-8" value="tittle" style="rounded=1;whiteSpace=wrap;html=1;strokeColor=#E07A5F;fontColor=#393C56;fillColor=#F2CC8F;" vertex="1" parent="1">
          <mxGeometry x="230" y="410" width="120" height="40" as="geometry" />
        </mxCell>
        <mxCell id="aTtCg0qON2xrBZ-jWl8L-9" value="link" style="rounded=1;whiteSpace=wrap;html=1;strokeColor=#E07A5F;fontColor=#393C56;fillColor=#F2CC8F;" vertex="1" parent="1">
          <mxGeometry x="370" y="410" width="120" height="40" as="geometry" />
        </mxCell>
        <mxCell id="aTtCg0qON2xrBZ-jWl8L-22" style="edgeStyle=orthogonalEdgeStyle;rounded=0;orthogonalLoop=1;jettySize=auto;html=1;exitX=0.5;exitY=1;exitDx=0;exitDy=0;entryX=0.5;entryY=0;entryDx=0;entryDy=0;strokeColor=#E07A5F;fontColor=#393C56;fillColor=#F2CC8F;" edge="1" parent="1" source="aTtCg0qON2xrBZ-jWl8L-13" target="aTtCg0qON2xrBZ-jWl8L-20">
          <mxGeometry relative="1" as="geometry" />
        </mxCell>
        <mxCell id="aTtCg0qON2xrBZ-jWl8L-23" style="edgeStyle=orthogonalEdgeStyle;rounded=0;orthogonalLoop=1;jettySize=auto;html=1;exitX=0.5;exitY=1;exitDx=0;exitDy=0;entryX=0.5;entryY=0;entryDx=0;entryDy=0;strokeColor=#E07A5F;fontColor=#393C56;fillColor=#F2CC8F;" edge="1" parent="1" source="aTtCg0qON2xrBZ-jWl8L-13" target="aTtCg0qON2xrBZ-jWl8L-21">
          <mxGeometry relative="1" as="geometry" />
        </mxCell>
        <mxCell id="aTtCg0qON2xrBZ-jWl8L-13" value="header" style="rounded=1;whiteSpace=wrap;html=1;strokeColor=#E07A5F;fontColor=#393C56;fillColor=#F2CC8F;" vertex="1" parent="1">
          <mxGeometry x="600" y="410" width="120" height="40" as="geometry" />
        </mxCell>
        <mxCell id="aTtCg0qON2xrBZ-jWl8L-25" style="edgeStyle=orthogonalEdgeStyle;rounded=0;orthogonalLoop=1;jettySize=auto;html=1;exitX=0.5;exitY=1;exitDx=0;exitDy=0;entryX=0.5;entryY=0;entryDx=0;entryDy=0;strokeColor=#E07A5F;fontColor=#393C56;fillColor=#F2CC8F;" edge="1" parent="1" source="aTtCg0qON2xrBZ-jWl8L-14" target="aTtCg0qON2xrBZ-jWl8L-24">
          <mxGeometry relative="1" as="geometry" />
        </mxCell>
        <mxCell id="aTtCg0qON2xrBZ-jWl8L-14" value="div" style="rounded=1;whiteSpace=wrap;html=1;strokeColor=#E07A5F;fontColor=#393C56;fillColor=#F2CC8F;" vertex="1" parent="1">
          <mxGeometry x="910" y="410" width="120" height="40" as="geometry" />
        </mxCell>
        <mxCell id="aTtCg0qON2xrBZ-jWl8L-15" value="button" style="rounded=1;whiteSpace=wrap;html=1;strokeColor=#E07A5F;fontColor=#393C56;fillColor=#F2CC8F;" vertex="1" parent="1">
          <mxGeometry x="1160" y="410" width="120" height="40" as="geometry" />
        </mxCell>
        <mxCell id="aTtCg0qON2xrBZ-jWl8L-20" value="h1" style="rounded=1;whiteSpace=wrap;html=1;strokeColor=#E07A5F;fontColor=#393C56;fillColor=#F2CC8F;" vertex="1" parent="1">
          <mxGeometry x="510" y="500" width="120" height="40" as="geometry" />
        </mxCell>
        <mxCell id="aTtCg0qON2xrBZ-jWl8L-21" value="h3" style="rounded=1;whiteSpace=wrap;html=1;strokeColor=#E07A5F;fontColor=#393C56;fillColor=#F2CC8F;" vertex="1" parent="1">
          <mxGeometry x="690" y="500" width="120" height="40" as="geometry" />
        </mxCell>
        <mxCell id="aTtCg0qON2xrBZ-jWl8L-24" value="div" style="rounded=1;whiteSpace=wrap;html=1;strokeColor=#E07A5F;fontColor=#393C56;fillColor=#F2CC8F;" vertex="1" parent="1">
          <mxGeometry x="910" y="500" width="120" height="40" as="geometry" />
        </mxCell>
        <mxCell id="aTtCg0qON2xrBZ-jWl8L-26" value="script src" style="rounded=1;whiteSpace=wrap;html=1;strokeColor=#E07A5F;fontColor=#393C56;fillColor=#F2CC8F;" vertex="1" parent="1">
          <mxGeometry x="1410" y="410" width="120" height="40" as="geometry" />
        </mxCell>
      </root>
    </mxGraphModel>
  </diagram>
</mxfile>
